<svg width="336" height="336" viewBox="0 0 336 336" fill="none" xmlns="http://www.w3.org/2000/svg">
<g clip-path="url(#clip0_1_32)">
<path d="M168 336C260.784 336 336 260.784 336 168C336 75.2162 260.784 0 168 0C75.2162 0 0 75.2162 0 168C0 260.784 75.2162 336 168 336Z" fill="#32094B"/>
<path d="M116.381 184.169L72.3648 228.185L90.7458 246.567L134.762 202.55L116.381 184.169Z" fill="#523509"/>
<path d="M104.776 195.557L121.393 197.325L123.161 213.942L102.301 217.124L104.776 195.557Z" fill="#4D2F0D"/>
<path d="M89.9266 210.406L104.776 195.557L102.301 217.124L94.1693 225.962L89.9266 210.406Z" fill="#5F4620"/>
<path d="M123.161 213.942L102.301 217.124L94.1693 225.962L94.8764 242.226L123.161 213.942Z" fill="#442F06"/>
<mask id="path-6-inside-1_1_32" fill="white">
<rect x="60" y="225.406" width="35" height="35" rx="2"/>
</mask>
<rect x="60" y="225.406" width="35" height="35" rx="2" fill="#A43FA0" stroke="#8C8433" stroke-width="12" mask="url(#path-6-inside-1_1_32)"/>
<path d="M254.445 63.7832L241.01 106.21L135.297 202.73L116.205 183.638L211.311 76.5111L254.445 63.7832Z" fill="#A29D9D"/>
<path d="M241.007 106.221L254.442 63.7946L223.57 94.4406L241.007 106.221Z" fill="#717171"/>
<path d="M188.922 101.512L211.195 76.4094L193.871 101.512V123.432L188.922 101.512Z" fill="#6D6D6D"/>
<path d="M223.57 94.4406L211.195 76.4094L193.871 101.512V123.432L223.57 94.4406Z" fill="#8F8F8F"/>
<path d="M224.001 121.742L223.57 94.4406L241 106.214L224.001 121.742Z" fill="#5B5B5B"/>
<path d="M199.528 117.775L223.57 94.4406L224.022 121.721L218.825 126.465L199.528 117.775Z" fill="#767676"/>
<path d="M185.174 157.161L199.528 117.775L218.832 126.473L185.174 157.161Z" fill="#828282"/>
<path d="M211.195 76.4094L254.435 63.7876L223.57 94.4407L211.195 76.4094Z" fill="#B2B2B2"/>
<path d="M169.476 147.827L199.528 117.775L185.209 157.196L169.476 147.827Z" fill="#6E6E6E"/>
<path d="M157.102 137.574L188.922 101.512L193.871 123.432L157.102 137.574Z" fill="#AEAEAE"/>
<path d="M157.102 137.574L193.871 123.432L169.476 147.827L145.435 168.333L157.102 137.574Z" fill="#919191"/>
<path d="M123.868 175.051L157.102 137.574L147.909 162.323L123.868 175.051Z" fill="#C8C8C8"/>
<path d="M154.98 160.202L169.476 147.827L185.209 157.196L157.102 182.829L154.98 160.202Z" fill="#606060"/>
<path d="M105.405 190.472L120.927 197.203L121.509 197.426L128.601 213.668L155.096 215.458L195.755 203.79L214.847 175.506L154.036 195.305L139.527 196.653L152.925 185.665L161.052 158.717L133.97 165.123L122.331 179.258L123.385 165.8L137.13 124.747L143.793 103.703L115.197 123.03L103.446 164.239L105.405 190.472Z" fill="#8C8433"/>
<path d="M136.358 167.728L155.803 163.839L150.5 181.87L131.408 186.82L136.358 167.728Z" fill="#A22EAC"/>
<path d="M148.732 165.253L155.803 163.839L154.036 170.556L147.318 172.324L148.732 165.253Z" fill="#AC50C3"/>
<path d="M139.893 167.021L148.732 165.253L147.318 172.324L139.893 167.021Z" fill="#8129A0"/>
<path d="M142.722 183.991L147.318 172.324L154.036 170.556L150.5 181.87L142.722 183.991Z" fill="#84228C"/>
<path d="M134.944 173.385L147.318 172.324L142.722 183.991L134.944 173.385Z" fill="#85308C"/>
<path d="M131.408 186.82L134.944 173.385L139.186 179.042L131.408 186.82Z" fill="#872889"/>
<path d="M142.722 183.991L139.186 179.042L131.408 186.82L142.722 183.991Z" fill="#931DB1"/>
<path d="M268.5 50.5803C268.5 50.5803 246.5 30.5804 234 32.0803L266.5 54.5804L302 89.0804L268.5 50.5803Z" fill="#D9D9D9" stroke="white"/>
<path d="M123.161 213.942L121.393 197.325L127.05 210.053L123.161 213.942Z" fill="#987541"/>
</g>
<defs>
<clipPath id="clip0_1_32">
<rect width="336" height="336" fill="white"/>
</clipPath>
</defs>
</svg>
