<svg width="336" height="336" viewBox="0 0 336 336" fill="none" xmlns="http://www.w3.org/2000/svg">
<circle cx="168" cy="168" r="168" fill="#4B0909"/>
<path d="M54 150.5L70 102.5L72.5 198.5L54 150.5Z" fill="#E43B4F"/>
<path d="M129.5 101L101 78L136 71.5L129.5 101Z" fill="#B94444"/>
<path d="M101 78L70 102.5L119 140.5L129.5 101L101 78Z" fill="#C62828"/>
<path d="M88 163L70 102.5L168.5 205.5L88 163Z" fill="#671010"/>
<path d="M72.5 198.5L70 102.5L88 163L72.5 198.5Z" fill="#AD243D"/>
<path d="M112 146.5L70 102.5L119 140.5L168 205L112 146.5Z" fill="#B11D1D"/>
<path d="M168 89L136 71.5L148 122L119 140.5L153.5 186L168 152.5V89Z" fill="#B73252"/>
<path d="M119 140.5L136 71.5L148 122L119 140.5Z" fill="#AD2434"/>
<path d="M200.5 72L168 89V152.5L207 100.5L200.5 72Z" fill="#A63543"/>
<path d="M237.5 74L200.5 72L207 100.5L216.5 115L237.5 74Z" fill="#950D15"/>
<path d="M265 95L237.5 74L216.5 115L206 146L265 95Z" fill="#840E0E"/>
<path d="M216.5 115L207 100.5L176.5 141L216.5 115Z" fill="#921D40"/>
<path d="M199 167L216.5 115L177 140.5L199 167Z" fill="#B51A49"/>
<path d="M288 141.5L265 95L242 167.5L288 141.5Z" fill="#A53939"/>
<path d="M242 167.5L265 95L206 146L242 167.5Z" fill="#962929"/>
<path d="M266 193.5L288 141.5L242 167.5L227.5 209.5L266 193.5Z" fill="#771212"/>
<path d="M234.5 224L227.5 209.5L266 193.5L234.5 224Z" fill="#A03232"/>
<path d="M168 152.5L177 140.5L199 167L168 152.5Z" fill="#EC5F79"/>
<path d="M236 184.5L168 152.5L153.5 186L168.5 205.5L236 184.5Z" fill="#A03246"/>
<path d="M199 167L206 146L242 167.5L236 185L199 167Z" fill="#8B1212"/>
<path d="M168.5 253L234.5 224L168.5 205.5L107.5 227.5L168.5 253Z" fill="#810E0E"/>
<path d="M72.5 198.5L88 163L129 184.5L72.5 198.5Z" fill="#832222"/>
<path d="M168.5 205.5L72.5 198.5L129 184.5L168.5 205.5Z" fill="#A82323"/>
<path d="M107.5 227.5L72.5 198.5L168.5 205.5L107.5 227.5Z" fill="#992222"/>
<path d="M207.5 216.5L227.5 209.5L234.5 224L207.5 216.5Z" fill="#8F2525"/>
<path d="M202.5 195L227.5 209.5L236 185L235.5 184.5L202.5 195Z" fill="#89111F"/>
<path d="M202.5 195L168.5 205.5L207.5 216.5L227.5 209.5L202.5 195Z" fill="#961A1A"/>
<path d="M309.5 91C287 66 270.097 36.6439 222.5 22.5H224.5C281.5 33 286 53.5 309.5 91Z" fill="white" fill-opacity="0.5" stroke="white" stroke-opacity="0.5"/>
</svg>
